<svg width="370" height="122" xmlns="http://www.w3.org/2000/svg" viewBox="0 0 370 122">
    <g>
        <g>
            <path d="M11.66,37.39V24.87a3.5,3.5,0,0,1,3.48-3.48H99.6a3.49,3.49,0,0,1,3.48,3.48V37.39" fill="#fff"/>
            <path d="M26.56,15.78V4.4A4.41,4.41,0,0,1,31,0H83.78a4.42,4.42,0,0,1,4.41,4.4V15.78" fill="#fff"/>
            <path d="M114.74,122.84H0V46.9a4.37,4.37,0,0,1,4.36-4.36h106a4.37,4.37,0,0,1,4.35,4.36ZM75.55,71.4H39v5.49H75.55Z" fill="#fff"/>
            <path d="M135.2,80.31V78.1a8.75,8.75,0,0,0,6.38-3.46q2.13-2.94,7.29-16.09L171.83,0H174L201.5,67.63q2.75,6.7,4.38,8.3c1.1,1.06,2.94,1.79,5.52,2.17v2.21h-28V78.1A23,23,0,0,0,189.6,77c.93-.44,1.4-1.53,1.4-3.27a15.38,15.38,0,0,0-.54-3.07A35.07,35.07,0,0,0,189,66l-4.41-11.46H155.48q-4.29,11.7-5.12,14.28a14,14,0,0,0-.84,4.08,4.26,4.26,0,0,0,2.26,4.17,16.89,16.89,0,0,0,5.26,1v2.21ZM182.68,49.7,170,16.86,157.35,49.7Z" fill="#fff"/>
            <path d="M214.82,78.06c4.09-.47,6.75-1.26,8-2.38s1.86-4,1.86-8.52v-54c0-4.42-.6-7.27-1.81-8.53s-3.89-2-8.05-2.37V0h30.24q15.3,0,25.87,5.45Q290,15.25,290,40.43a44.08,44.08,0,0,1-3.43,17.25,34.88,34.88,0,0,1-10.33,13.8,34,34,0,0,1-9.09,5.4q-8.61,3.44-21.15,3.43H214.82Zm22.6-3.2c.89.63,2.75,1,5.56,1q13.16,0,21.65-5.63,13-8.67,13-29.6,0-18.67-10.74-28.11Q257.72,4.4,242.54,4.4c-2.52,0-4.23.3-5.12.89s-1.34,1.9-1.34,3.92V71C236.08,72.92,236.52,74.23,237.42,74.86Z" fill="#fff"/>
            <path d="M320.75,0v2a20.13,20.13,0,0,0-5.65.59,3.72,3.72,0,0,0-2.63,3.84,13.35,13.35,0,0,0,.94,4.14q.94,2.67,3.51,8.84L334.18,61,349.85,16q1-3,1.57-5A14,14,0,0,0,352,7.62q0-3.49-2.74-4.74a15.5,15.5,0,0,0-5.32-.82V0h22.56v2a9.65,9.65,0,0,0-5.17,2q-2.54,2.28-5,9.15L331.86,80.31H330.2L303,14.77q-3.45-8.34-5.52-10.38a9.3,9.3,0,0,0-6.06-2.33V0Z" fill="#fff"/>
            <path d="M135.3,122.24v-1.52l2.15-.29.64-.7V99.64l-.64-.52-2.25-.22V97.42h6.63v.92l12,19V99.89l-.64-.67-2.12-.32V97.42h7.4V98.9l-2.11.32-.64.67v22.35h-2.32l-13.43-21v18.5l.64.7,2.12.29v1.52Z" fill="#fff"/>
            <path d="M209,96.79a10.46,10.46,0,0,1,7.74,3.25,12,12,0,0,1,2.71,4.3,15.43,15.43,0,0,1,.92,5.47,16.8,16.8,0,0,1-.44,3.89,13.77,13.77,0,0,1-1.35,3.43,11.12,11.12,0,0,1-4,4.2,10.72,10.72,0,0,1-5.56,1.51,11,11,0,0,1-4.25-.82,10.54,10.54,0,0,1-3.52-2.36,12.23,12.23,0,0,1-2.71-4.32,17,17,0,0,1,0-11,11.93,11.93,0,0,1,2.69-4.28,10.61,10.61,0,0,1,7.8-3.25Zm0,2a6.55,6.55,0,0,0-5.64,3,13.72,13.72,0,0,0-2.09,8,13.75,13.75,0,0,0,2.11,8.06,6.71,6.71,0,0,0,11.19,0,13.83,13.83,0,0,0,2.1-8,13.72,13.72,0,0,0-2.1-8A6.51,6.51,0,0,0,209,98.79Z" fill="#fff"/>
            <path d="M259.07,97.42H279v5.69H277l-.48-3.43-.5-.56h-5.39V120l.59.52,2.37.18v1.52h-9.21v-1.52l2.36-.18.6-.52V99.12H262l-.5.56-.5,3.43h-1.93Z" fill="#fff"/>
            <path d="M317.38,122.24v-1.52l2-.18.6-.52V99.64l-.6-.52-2-.22V97.42h16.89v5.4h-2l-.5-3.14-.48-.56h-8.16v9.35h5.78l.5-.52.35-2.69h1.67v8.15h-1.67l-.35-2.68-.5-.56h-5.78v10.37h9.45l.5-.59.6-3.74h1.83v6Z" fill="#fff"/>
        </g>
    </g>
</svg>
